<?xml version="1.0" encoding="utf-8"?>
<!-- Generator: Adobe Illustrator 22.0.0, SVG Export Plug-In . SVG Version: 6.00 Build 0)  -->
<svg version="1.1" id="Layer_1" xmlns="http://www.w3.org/2000/svg" xmlns:xlink="http://www.w3.org/1999/xlink" x="0px" y="0px"
	 viewBox="0 0 5421 1994.7" style="enable-background:new 0 0 5421 1994.7;" xml:space="preserve">
<style type="text/css">
	.st0{fill:#520E26;}
</style>
<g>
	<g>
		<path d="M5089.1,2182.5c36.5,0.7,73,1.4,109.4-1.2c34.1-2.4,69.6-6.9,101.7-19.2c15.6-6,30.3-14.4,41.7-26.8
			c1.9-2.1-0.5-5.3-3-3.9c-90.8,50.5-164.2,126-252.8,179.9c-26.1,15.8-54.2,32.3-84.6,37.4c0.6,1.5,1.3,3,1.9,4.6
			c52.1-27.7,111.2-37.7,169.4-41.9c30.8-2.2,61.6-2.9,92.5-4.1c31-1.2,61.9-3,92.7-5.5c34.8-2.9,69.6-6.6,104.2-11.1
			c3.1-0.4,3.2-5.4,0-5c-62.8,8.3-125.9,13.8-189.1,16.4c-60.6,2.5-121.7,2.6-181.3,15.1c-31.6,6.6-62.5,16.8-91,31.9
			c-2.7,1.4-0.7,5,1.9,4.6c26.8-4.5,51.6-18,74.9-31.5c22.7-13.1,44.5-27.8,65.7-43.3c42.1-30.7,82.1-64.3,124.2-95.1
			c23.7-17.3,48.2-33.7,73.9-48c-1-1.3-2-2.6-3-3.9c-21.4,23.2-53.7,31.6-83.7,37.4c-34.9,6.7-70.5,8.7-106,9
			c-19.9,0.2-39.7-0.2-59.6-0.6C5085.9,2177.5,5085.9,2182.5,5089.1,2182.5L5089.1,2182.5z"/>
	</g>
</g>
<path class="st0" d="M4010.1,213.9c-11.1-10-30.3-10.6-44.2-12.1c-18.7-2.1-37.5-2.4-56.2-1.1c-38.4,2.6-76.1,11.4-112.4,23.7
	c-72.6,24.6-140.7,62.1-207,100.2c-107.1,61.6-209.4,131.1-308.8,204.3c-61.1,7.5-122.5,12.7-183.9,16.3
	c-195.2,11.7-391.2,11.3-586.6,5.2c-395.1-12.5-789.3-50.2-1182.6-88.5c-220.1-21.4-440-44.4-659.8-69c-6.4-0.7-6.3,9.3,0,10
	c197.2,22.1,394.5,42.9,592,62.4c196.6,19.4,393.3,37.8,590.1,54.3c198.1,16.6,396.4,30.7,595.1,38.5c196.5,7.6,393.5,9.2,590,0.4
	c76.5-3.5,153.2-8.8,229.4-17.5c-14.1,10.4-28.1,21-42,31.5c-118,89.4-232.6,183.1-348.5,275.1c-116.9,92.8-235.2,184.1-359.3,267.1
	c-13.1,8.8-26.3,17.4-39.5,26c-0.9,0-1.8,0.2-2.8,0.9c-74.8,54.5-151,106.9-228,158.2c-145.6,20.2-289.3,55.4-424,115
	c-21.5,9.5-42.6,19.6-63.5,30.3c-17.7,9.1-34.8,19.4-49.2,33.3c-23.5,22.7-37.1,59.1-11.9,86.2c21.1,22.7,57.8,23.6,86.1,18.7
	c43.3-7.5,85.2-30.6,122.7-52.6c43.2-25.3,84.8-53.2,126.9-80.2c43.4-27.9,86.7-55.8,129.9-84c29-19,58-38,86.8-57.3
	c27.9-3.8,55.8-7.1,83.7-9.9c190-18.9,381.8-17,572.4-10.4c204.6,7.1,408.7,22.1,612.8,38c25.2,2,50.4,3.9,75.6,5.9
	c6.4,0.5,6.4-9.5,0-10c-211.6-16.6-423.3-33.2-635.4-41.9c-198.6-8.2-398.6-11.7-596.8,5.7c-31.2,2.8-62.5,6.1-93.6,10.1
	c49.6-33.3,98.9-67,147.7-101.5c19.3-13.6,38.4-27.4,57.5-41.3c0.6-0.1,1.3-0.3,2-0.8c121.3-78.3,236.9-164.9,350.4-254
	c113.4-88.9,224.8-180.3,338.5-268.7c40.1-31.1,80.5-61.9,121.3-92c102.6-12.6,204.4-31.6,303.7-60.9c22.4-6.6,44.7-13.8,66.8-21.5
	c0.8-0.3,1.5-0.7,2-1.3c71.5-32,140.9-68.6,207.8-109.5c33.6-20.6,66.6-42.3,98.9-65.1c7.7-5.4,15.3-10.9,22.9-16.4
	c7.2-5.2,15-10.2,21.1-16.7C4017,237.7,4021,223.7,4010.1,213.9z M1976,1474.8c-39.6,25.4-79,51.4-121.4,72
	c-34.7,16.8-73.8,33.4-113.2,28c-15.3-2.1-31.6-7.9-40.9-21c-11-15.3-9.2-34.7,0.2-50.2c21.7-35.8,68-53.5,104.2-70.4
	c133.1-62,276.1-99.1,421.1-120.6C2143.1,1367.5,2059.6,1421.2,1976,1474.8z M3995.9,244.9c-14.8,12.3-31.4,23.1-47.2,34.1
	c-15.8,11-31.8,21.7-48,32.2c-63.8,41.4-130.2,78.9-198.8,112c-16.9,8.2-34,16.1-51.1,23.8c-0.3,0.1-0.6,0.3-0.9,0.5
	c-113,38.9-229.9,63.3-348.2,78.8c70.3-51.4,142.1-100.8,216.1-146.8c61.4-38.2,124.3-74.7,189.3-106.5
	c68.5-33.6,142.9-62,220.2-63.1c19.3-0.3,38.7,1.1,57.7,4.7c6.5,1.2,14.9,2.5,19.5,7.9C4011.4,230.6,4002,239.9,3995.9,244.9z"/>
</svg>
